<?xml version="1.0" encoding="UTF-8"?>
<svg width="472px" height="151px" viewBox="0 0 472 151" version="1.1" xmlns="http://www.w3.org/2000/svg" xmlns:xlink="http://www.w3.org/1999/xlink">
    <!-- Generator: Sketch 50.2 (55047) - http://www.bohemiancoding.com/sketch -->
    <title>DC Logo Teal and Deep Blue over White Background RGB</title>
    <desc>Created with Sketch.</desc>
    <defs></defs>
    <g id="DC-Logo-Teal-and-Deep-Blue-over-White-Background-RGB" stroke="none" stroke-width="1" fill="none" fill-rule="evenodd">
        <g id="Group">
            <polygon id="Fill-1" fill="#FFFFFF" points="0 150.667 471.981 150.667 471.981 0.25 0 0.25"></polygon>
            <polygon id="Fill-2" fill="#00BCBC" points="37.092 70.5999 37.092 61.1299 70.454 61.1299 70.454 37.2379 103.817 70.5999"></polygon>
            <polygon id="Fill-3" fill="#00BCBC" points="37.092 80.0687 70.454 113.4307 70.454 89.5387 103.817 89.5387 103.817 80.0687"></polygon>
            <g id="Group-24" transform="translate(131.000000, 55.667000)">
                <path d="M17.5891,29.8411 C20.7691,29.8411 23.3201,28.9401 25.2461,27.1391 C27.1721,25.3381 28.1351,22.8471 28.1351,19.6681 C28.1351,16.4881 27.1721,13.9981 25.2461,12.1951 C23.3201,10.3951 20.7691,9.4931 17.5891,9.4931 L10.9661,9.4931 L10.9661,29.8411 L17.5891,29.8411 Z M0.4751,1.1211 L18.0131,1.1211 C22.0751,1.1211 25.6791,1.8821 28.8221,3.4011 C31.9671,4.9191 34.4031,7.0731 36.1361,9.8641 C37.8651,12.6551 38.7321,15.9231 38.7321,19.6681 C38.7321,23.4121 37.8651,26.6801 36.1361,29.4701 C34.4031,32.2621 31.9671,34.4171 28.8221,35.9361 C25.6791,37.4531 22.0751,38.2131 18.0131,38.2131 L0.4751,38.2131 L0.4751,1.1211 Z" id="Fill-4" fill="#002D3F"></path>
                <path d="M62.842,23.2718 L58.073,11.4008 L53.305,23.2718 L62.842,23.2718 Z M65.915,31.0068 L50.23,31.0068 L47.317,38.2128 L36.613,38.2128 L52.987,1.1218 L63.319,1.1218 L79.745,38.2128 L68.828,38.2128 L65.915,31.0068 Z" id="Fill-6" fill="#002D3F"></path>
                <polygon id="Fill-8" fill="#002D3F" points="85.5744 9.4398 74.1804 9.4398 74.1804 1.1218 107.4054 1.1218 107.4054 9.4398 96.0654 9.4398 96.0654 38.2128 85.5744 38.2128"></polygon>
                <path d="M128.1281,23.2718 L123.3581,11.4008 L118.5901,23.2718 L128.1281,23.2718 Z M131.2011,31.0068 L115.5161,31.0068 L112.6031,38.2128 L101.8991,38.2128 L118.2731,1.1218 L128.6041,1.1218 L145.0301,38.2128 L134.1141,38.2128 L131.2011,31.0068 Z" id="Fill-10" fill="#002D3F"></path>
                <path d="M154.9641,36.4906 C151.8731,34.8496 149.4451,32.5616 147.6801,29.6306 C145.9121,26.6986 145.0291,23.3766 145.0291,19.6686 C145.0291,15.9586 145.9121,12.6376 147.6801,9.7066 C149.4451,6.7746 151.8731,4.4866 154.9641,2.8446 C158.0561,1.2006 161.5441,0.3796 165.4301,0.3796 C168.8201,0.3796 171.8771,0.9806 174.5971,2.1816 C177.3171,3.3826 179.5771,5.1136 181.3801,7.3746 L174.7021,13.4146 C172.3001,10.5186 169.3861,9.0696 165.9601,9.0696 C163.9461,9.0696 162.1521,9.5116 160.5811,10.3946 C159.0101,11.2776 157.7911,12.5226 156.9251,14.1316 C156.0601,15.7386 155.6281,17.5836 155.6281,19.6686 C155.6281,21.7516 156.0601,23.5966 156.9251,25.2056 C157.7911,26.8126 159.0101,28.0586 160.5811,28.9396 C162.1521,29.8246 163.9461,30.2646 165.9601,30.2646 C169.3861,30.2646 172.3001,28.8166 174.7021,25.9206 L181.3801,31.9616 C179.5771,34.2226 177.3171,35.9536 174.5971,37.1546 C171.8771,38.3546 168.8201,38.9556 165.4301,38.9556 C161.5441,38.9556 158.0561,38.1346 154.9641,36.4906" id="Fill-12" fill="#00BCBC"></path>
                <path d="M208.0392,28.9398 C209.5582,28.0588 210.7582,26.8128 211.6412,25.2058 C212.5242,23.5968 212.9662,21.7518 212.9662,19.6688 C212.9662,17.5838 212.5242,15.7388 211.6412,14.1308 C210.7582,12.5228 209.5582,11.2778 208.0392,10.3948 C206.5192,9.5118 204.8232,9.0698 202.9512,9.0698 C201.0792,9.0698 199.3832,9.5118 197.8642,10.3948 C196.3472,11.2778 195.1442,12.5228 194.2612,14.1308 C193.3782,15.7388 192.9372,17.5838 192.9372,19.6688 C192.9372,21.7518 193.3782,23.5968 194.2612,25.2058 C195.1442,26.8128 196.3472,28.0588 197.8642,28.9398 C199.3832,29.8248 201.0792,30.2648 202.9512,30.2648 C204.8232,30.2648 206.5192,29.8248 208.0392,28.9398 M192.3812,36.4638 C189.2542,34.8048 186.7992,32.5078 185.0162,29.5768 C183.2312,26.6448 182.3392,23.3428 182.3392,19.6688 C182.3392,15.9938 183.2312,12.6908 185.0162,9.7588 C186.7992,6.8278 189.2542,4.5318 192.3812,2.8708 C195.5072,1.2108 199.0302,0.3788 202.9512,0.3788 C206.8722,0.3788 210.3972,1.2108 213.5232,2.8708 C216.6492,4.5318 219.1032,6.8278 220.8882,9.7588 C222.6712,12.6908 223.5632,15.9938 223.5632,19.6688 C223.5632,23.3428 222.6712,26.6448 220.8882,29.5768 C219.1032,32.5078 216.6492,34.8048 213.5232,36.4638 C210.3972,38.1258 206.8722,38.9558 202.9512,38.9558 C199.0302,38.9558 195.5072,38.1258 192.3812,36.4638" id="Fill-14" fill="#00BCBC"></path>
                <path d="M248.9435,10.8187 C247.8475,9.8647 246.2225,9.3877 244.0685,9.3877 L238.2395,9.3877 L238.2395,20.2507 L244.0685,20.2507 C246.2225,20.2507 247.8475,19.7827 248.9435,18.8467 C250.0375,17.9107 250.5865,16.5767 250.5865,14.8457 C250.5865,13.1147 250.0375,11.7727 248.9435,10.8187 Z M243.9635,28.3577 L238.2395,28.3577 L238.2395,38.2137 L227.7495,38.2137 L227.7495,1.1217 L244.7055,1.1217 C248.0605,1.1217 250.9735,1.6777 253.4485,2.7907 C255.9195,3.9027 257.8285,5.4927 259.1705,7.5597 C260.5115,9.6267 261.1835,12.0557 261.1835,14.8457 C261.1835,17.5317 260.5565,19.8717 259.3025,21.8667 C258.0485,23.8637 256.2555,25.4257 253.9235,26.5557 L261.9245,38.2137 L250.6925,38.2137 L243.9635,28.3577 Z" id="Fill-16" fill="#00BCBC"></path>
                <polygon id="Fill-18" fill="#00BCBC" points="295.4142 30.1058 295.4142 38.2128 265.6362 38.2128 265.6362 1.1218 294.7262 1.1218 294.7262 9.2288 276.0202 9.2288 276.0202 15.4808 292.5012 15.4808 292.5012 23.3238 276.0202 23.3238 276.0202 30.1058"></polygon>
                <polygon id="Fill-20" fill="#00B2B0" points="298.1945 5.1458 297.6815 5.1458 297.6815 1.5278 296.3445 1.5278 296.3445 1.1218 299.5325 1.1218 299.5325 1.5278 298.1945 1.5278"></polygon>
                <polygon id="Fill-22" fill="#00B2B0" points="300.5695 1.9212 300.5695 5.1462 300.0635 5.1462 300.0635 1.1212 300.6145 1.1212 301.9755 3.9152 303.3395 1.1212 303.8885 1.1212 303.8885 5.1462 303.3825 5.1462 303.3825 1.9212 302.1515 4.4452 301.8075 4.4452"></polygon>
            </g>
        </g>
    </g>
</svg>